<svg width="30" height="30" viewBox="0 0 30 30" fill="none" xmlns="http://www.w3.org/2000/svg">
<path fill-rule="evenodd" clip-rule="evenodd" d="M14.0529 19.5275V20.0525C14.0529 20.57 14.4729 20.99 14.9904 20.99C15.5079 20.99 15.9279 20.57 15.9279 20.0525V19.5275H15.9941C17.4791 19.5275 18.6879 18.3162 18.6879 16.8275C18.6879 15.345 17.4791 14.1387 15.9941 14.1387H13.9866C13.5354 14.1387 13.1691 13.77 13.1691 13.3137C13.1691 12.8662 13.5354 12.5025 13.9866 12.5025H17.2479C17.7654 12.5025 18.1854 12.0825 18.1854 11.565C18.1854 11.0475 17.7654 10.6275 17.2479 10.6275H15.9279V10.0763C15.9279 9.55879 15.5079 9.13879 14.9904 9.13879C14.4729 9.13879 14.0529 9.55879 14.0529 10.0763V10.6275H13.9866C12.5016 10.6275 11.2941 11.8325 11.2941 13.3137C11.2941 14.8037 12.5016 16.0137 13.9866 16.0137H15.9941C16.4454 16.0137 16.8129 16.3787 16.8129 16.8275C16.8129 17.2825 16.4454 17.6525 15.9941 17.6525H12.7329C12.2153 17.6525 11.7953 18.0725 11.7953 18.59C11.7953 19.1075 12.2153 19.5275 12.7329 19.5275H14.0529Z" fill="#285AFA"/>
<path fill-rule="evenodd" clip-rule="evenodd" d="M27.1876 8.42885C27.1551 8.0851 26.9351 7.78635 26.6164 7.65385L23.2351 6.2376C22.9514 6.11885 22.6239 6.14885 22.3626 6.31635C22.1026 6.48385 21.9426 6.7701 21.9351 7.0801L21.8489 10.8051C21.8414 11.1551 22.0276 11.4801 22.3339 11.6489C22.4751 11.7264 22.6301 11.7651 22.7864 11.7651C22.9689 11.7651 23.1489 11.7126 23.3064 11.6076L24.1601 11.0389C25.7776 14.7089 25.1064 19.1776 22.1401 22.1664C19.8201 24.5001 16.4951 25.5426 13.2576 24.9664C12.7501 24.8814 12.2614 25.2151 12.1702 25.7251C12.0789 26.2339 12.4177 26.7214 12.9276 26.8126C13.6264 26.9389 14.3289 26.9989 15.0276 26.9989C18.1689 26.9989 21.2176 25.7551 23.4701 23.4876C27.0701 19.8614 27.8264 14.3964 25.7401 9.98635L26.7739 9.2976C27.0614 9.10635 27.2201 8.7726 27.1876 8.42885Z" fill="#285AFA"/>
<path fill-rule="evenodd" clip-rule="evenodd" d="M7.66555 18.5056C7.3568 18.3369 6.9843 18.3519 6.69305 18.5469L5.84055 19.1156C4.2243 15.4456 4.8943 10.9768 7.8593 7.98809C10.178 5.65684 13.498 4.61059 16.7417 5.18809C17.2492 5.28434 17.7392 4.93934 17.8292 4.42934C17.9205 3.92059 17.5817 3.43309 17.0717 3.34184C13.2205 2.65684 9.28055 3.89684 6.5293 6.66684C2.93055 10.2943 2.1743 15.7594 4.26055 20.1681L3.22555 20.8581C2.93805 21.0494 2.7793 21.3844 2.8118 21.7269C2.84555 22.0719 3.0643 22.3694 3.38305 22.5019L6.7643 23.9169C6.8818 23.9656 7.0043 23.9906 7.1268 23.9906C7.30555 23.9906 7.48305 23.9394 7.6368 23.8394C7.8968 23.6706 8.0568 23.3844 8.0643 23.0744L8.15055 19.3494C8.1593 19.0006 7.9718 18.6744 7.66555 18.5056Z" fill="#285AFA"/>
</svg>

