<svg width="30" height="30" viewBox="0 0 30 30" fill="none" xmlns="http://www.w3.org/2000/svg">
<path fill-rule="evenodd" clip-rule="evenodd" d="M14.9569 24.044C14.8444 24.344 14.6194 24.5815 14.3319 24.719C14.0444 24.844 13.7194 24.8565 13.4194 24.744C13.1194 24.6315 12.8819 24.419 12.7444 24.1315L11.0944 20.494C11.8444 20.344 12.6694 20.2065 13.5444 20.094L14.9319 23.1315C15.0569 23.419 15.0694 23.744 14.9569 24.044ZM18.6069 7.3565C17.8694 5.744 16.6569 4.694 15.2944 4.469C14.1819 4.294 13.0944 4.694 12.3069 5.5565C10.5194 7.519 8.73189 9.1315 7.16939 10.394L9.40689 15.119C9.61939 15.594 9.40689 16.144 8.93189 16.3565C8.80689 16.419 8.68189 16.444 8.54439 16.444C8.19439 16.444 7.85689 16.244 7.69439 15.894L5.65689 11.5815C5.20689 11.919 4.78189 12.219 4.39439 12.4815C2.80689 13.569 2.36939 15.5565 3.28189 17.544L3.76939 18.619C4.51939 20.269 5.88189 21.219 7.38189 21.219C7.69439 21.219 8.00689 21.1815 8.31939 21.1065C8.59439 21.0315 8.89439 20.9565 9.20689 20.894L11.0444 24.9065C11.3819 25.644 11.9819 26.219 12.7569 26.5065C13.1069 26.6315 13.4694 26.7065 13.8444 26.7065C14.2694 26.7065 14.7069 26.6065 15.1069 26.4315C15.8569 26.0815 16.4319 25.469 16.7194 24.7065C17.0069 23.9315 16.9694 23.1065 16.6319 22.3565L15.4944 19.869C16.5194 19.769 17.6069 19.7065 18.7444 19.6815C19.9569 19.6565 21.0694 19.0315 21.7069 18.0065C22.3444 17.0065 22.4194 15.7565 21.9319 14.669L18.6069 7.3565Z" fill="#285AFA"/>
<path fill-rule="evenodd" clip-rule="evenodd" d="M26.5211 7.4763C25.5574 5.35755 23.6211 3.8038 21.3399 3.3188C20.8374 3.2038 20.3361 3.5338 20.2286 4.04005C20.1199 4.5463 20.4436 5.04505 20.9499 5.15255C22.6761 5.52005 24.0849 6.65005 24.8149 8.25255C25.5249 9.8138 25.4724 11.5776 24.6724 13.0938C24.4299 13.5513 24.6049 14.1188 25.0624 14.3613C25.2024 14.435 25.3524 14.47 25.4999 14.47C25.8361 14.47 26.1611 14.2875 26.3299 13.97C27.4036 11.9363 27.4736 9.57005 26.5211 7.4763Z" fill="#285AFA"/>
<path fill-rule="evenodd" clip-rule="evenodd" d="M20.9493 6.53757C20.4643 6.35507 19.9243 6.60632 19.7443 7.09132C19.5655 7.57632 19.813 8.11631 20.298 8.29506C20.9705 8.54381 21.5055 9.04257 21.8043 9.69507C22.1105 10.3726 22.1268 11.1251 21.8493 11.8138C21.6555 12.2926 21.888 12.8401 22.3693 13.0326C22.4843 13.0789 22.6018 13.1014 22.7193 13.1014C23.0905 13.1014 23.4418 12.8789 23.5893 12.5139C24.0593 11.3463 24.0318 10.0701 23.5105 8.91882C23.0018 7.80632 22.093 6.96007 20.9493 6.53757Z" fill="#285AFA"/>
</svg>

